<?xml version="1.0" encoding="UTF-8"?>
<svg width="204px" height="65px" viewBox="0 0 204 65" version="1.1" xmlns="http://www.w3.org/2000/svg" xmlns:xlink="http://www.w3.org/1999/xlink">
    <!-- Generator: sketchtool 47.1 (45422) - http://www.bohemiancoding.com/sketch -->
    <title>37FEEF45-74E5-4F06-AF53-E725AFF9FA0C</title>
    <desc>Created with sketchtool.</desc>
    <defs></defs>
    <g id="Symbols" stroke="none" stroke-width="1" fill="none" fill-rule="evenodd">
        <g id="Header---DT" transform="translate(-85.000000, -125.000000)" fill="#253e5d">
            <g id="Logo---White" transform="translate(85.000000, 125.000000)">
                <g id="IDR-Law-Logo---White">
                    <path d="M86.7892003,0 L126.845754,0 L126.845754,65 L86.7892003,65 L86.7892003,0 Z M43.3946001,0 L83.4511541,0 L83.4511541,65 L43.3946001,65 L43.3946001,0 Z M0,0 L40.056554,0 L40.056554,65 L0,65 L0,0 Z M102.906727,34.3915344 L105.611292,34.3915344 L111.141977,43.3333333 L114.606252,43.3333333 L108.802072,34.2664743 C110.625384,33.9746658 111.992847,33.2555773 112.904503,32.1091871 C113.816158,30.9627969 114.271979,29.5298306 114.271979,27.8102453 C114.271979,26.09066 113.649024,24.6368506 112.403094,23.4487734 C111.157165,22.2606963 109.349075,21.6666667 106.978769,21.6666667 L100.141385,21.6666667 L100.141385,43.3333333 L102.906727,43.3333333 L102.906727,34.3915344 Z M102.906727,23.9490139 L106.978769,23.9490139 C109.977104,23.9490139 111.476249,25.31424 111.476249,28.044733 C111.476249,29.3370275 111.106527,30.3427092 110.367073,31.0618086 C109.627619,31.7809079 108.498196,32.1404521 106.978769,32.1404521 L102.906727,32.1404521 L102.906727,23.9490139 Z M57.3098287,41.1447811 L57.3098287,24.0740741 L61.2319851,24.0740741 C63.9080531,24.0740741 65.9508224,24.8244273 67.3603544,26.3251563 C68.7698864,27.8258853 69.4746418,29.9206215 69.4746418,32.6094276 C69.4746418,35.2982337 68.7698864,37.3929699 67.3603544,38.8936989 C65.9508224,40.3944279 63.9080531,41.1447811 61.2319851,41.1447811 L57.3098287,41.1447811 Z M61.2319851,21.6666667 L54.5214207,21.6666667 L54.5214207,43.3333333 L61.2319851,43.3333333 C64.6638891,43.3333333 67.3705584,42.390181 69.3520744,40.503848 C71.3335904,38.617515 72.3243335,35.9860679 72.3243335,32.6094276 C72.3243335,29.2327873 71.3335904,26.5648647 69.3520744,24.6055796 C67.3705584,22.6462945 64.6638891,21.6666667 61.2319851,21.6666667 Z M20.028277,43.3333333 L22.2536411,43.3333333 L22.2536411,21.6666667 L20.028277,21.6666667 L20.028277,43.3333333 Z" id="Combined-Shape"></path>
                    <path d="M140.275281,21.6666667 L143.052609,21.6666667 L143.052609,40.5635377 L150.468989,40.5635377 L150.468989,42.6867816 L140.275281,42.6867816 L140.275281,21.6666667 Z M170.093403,34.3757982 C170.093403,32.4952013 169.538961,30.9887243 168.430059,29.8563218 C167.321157,28.7239194 165.98846,28.1577267 164.431928,28.1577267 C162.875396,28.1577267 161.542699,28.7036982 160.433797,29.7956577 C159.324895,30.8876172 158.770452,32.3738731 158.770452,34.25447 C158.770452,36.1350669 159.329981,37.6617651 160.449057,38.8346105 C161.568132,40.0074558 162.900829,40.5938697 164.447188,40.5938697 C165.993546,40.5938697 167.321157,40.027677 168.430059,38.8952746 C169.538961,37.7628722 170.093403,36.2563951 170.093403,34.3757982 Z M158.221091,40.5180396 C156.695079,38.8902111 155.932084,36.8074307 155.932084,34.269636 C155.932084,31.7318413 156.689992,29.6793927 158.205831,28.1122286 C159.721669,26.5450645 161.629155,25.7614943 163.928346,25.7614943 C165.352624,25.7614943 166.598848,26.0951435 167.667057,26.7624521 C168.735265,27.4297607 169.544039,28.2992709 170.093403,29.3710089 L170.093403,26.0344828 L172.901251,26.0344828 L172.901251,42.6867816 L170.093403,42.6867816 L170.093403,39.2895913 C169.544039,40.3815508 168.735265,41.2662269 167.667057,41.9436462 C166.598848,42.6210655 165.352624,42.9597701 163.928346,42.9597701 C161.649502,42.9597701 159.747103,42.1458681 158.221091,40.5180396 Z M200.338807,26.0344828 L203.146655,26.0344828 L197.86668,42.6867816 L194.997792,42.6867816 L191.213302,29.4620051 L187.428811,42.6867816 L184.529403,42.6867816 L179.218909,26.0344828 L182.087797,26.0344828 L185.963847,39.9265645 L189.900938,26.0344828 L192.769826,26.0344828 L196.493276,39.9568966 L200.338807,26.0344828 Z" id="Law"></path>
                </g>
            </g>
        </g>
    </g>
</svg>